<?xml version="1.0" encoding="UTF-8" standalone="no"?>
<!DOCTYPE svg PUBLIC "-//W3C//DTD SVG 1.1//EN" "http://www.w3.org/Graphics/SVG/1.1/DTD/svg11.dtd">
<svg width="100%" height="100%" viewBox="0 0 969 238" version="1.1" xmlns="http://www.w3.org/2000/svg" xmlns:xlink="http://www.w3.org/1999/xlink" xml:space="preserve" xmlns:serif="http://www.serif.com/" style="fill-rule:evenodd;clip-rule:evenodd;stroke-linejoin:round;stroke-miterlimit:2;">
    <g transform="matrix(1.00623,0,0,1.03042,-481.648,-437.858)">
        <rect id="Artboard1" x="478.665" y="424.933" width="962.671" height="230.135" style="fill:none;"/>
        <g id="Artboard11" serif:id="Artboard1">
            <g transform="matrix(1.78267,0,0,1.74083,-80.2289,-143.708)">
                <g transform="matrix(164.733,0,0,164.733,315,454)">
                    <path d="M0.174,-0.76L0.478,-0.76L0.478,-0.724C0.427,-0.721 0.395,-0.713 0.381,-0.699C0.369,-0.687 0.364,-0.665 0.364,-0.633L0.364,-0.238C0.364,-0.153 0.352,-0.093 0.329,-0.056C0.298,-0.006 0.245,0.019 0.17,0.019C0.121,0.019 0.079,0.003 0.045,-0.029C0.015,-0.056 0,-0.091 0,-0.133C0,-0.144 0.002,-0.154 0.007,-0.163C0.018,-0.184 0.035,-0.195 0.058,-0.195C0.071,-0.195 0.082,-0.192 0.093,-0.185C0.109,-0.175 0.117,-0.159 0.117,-0.138C0.117,-0.111 0.103,-0.092 0.074,-0.083C0.089,-0.047 0.121,-0.029 0.168,-0.029C0.212,-0.029 0.245,-0.047 0.266,-0.083C0.284,-0.113 0.293,-0.163 0.293,-0.231L0.293,-0.633C0.293,-0.669 0.286,-0.692 0.272,-0.703C0.256,-0.714 0.224,-0.721 0.174,-0.724L0.174,-0.76Z" style="fill:white;fill-rule:nonzero;"/>
                </g>
                <g transform="matrix(164.733,0,0,164.733,397.367,454)">
                    <path d="M0.431,-0.351L0.431,-0.366C0.431,-0.414 0.421,-0.449 0.4,-0.471C0.389,-0.482 0.374,-0.492 0.354,-0.5C0.331,-0.509 0.307,-0.513 0.283,-0.513C0.243,-0.513 0.21,-0.507 0.185,-0.494C0.172,-0.488 0.163,-0.481 0.159,-0.473C0.178,-0.466 0.187,-0.45 0.187,-0.425C0.187,-0.413 0.184,-0.402 0.177,-0.393C0.167,-0.379 0.153,-0.372 0.134,-0.372C0.119,-0.372 0.106,-0.378 0.096,-0.389C0.085,-0.402 0.08,-0.417 0.08,-0.437C0.08,-0.468 0.099,-0.496 0.136,-0.52C0.177,-0.547 0.227,-0.56 0.286,-0.56C0.343,-0.56 0.391,-0.548 0.43,-0.522C0.477,-0.492 0.5,-0.433 0.5,-0.345L0.5,-0.12C0.5,-0.074 0.51,-0.051 0.531,-0.051C0.55,-0.051 0.567,-0.068 0.583,-0.101L0.612,-0.064C0.589,-0.009 0.557,0.018 0.517,0.018C0.465,0.018 0.436,-0.017 0.432,-0.087C0.391,-0.017 0.321,0.018 0.221,0.018C0.164,0.018 0.12,-0.002 0.087,-0.043C0.065,-0.071 0.054,-0.105 0.054,-0.144C0.054,-0.206 0.085,-0.255 0.147,-0.29C0.208,-0.325 0.288,-0.344 0.389,-0.349L0.431,-0.351ZM0.431,-0.301L0.394,-0.299C0.309,-0.294 0.243,-0.279 0.197,-0.254C0.153,-0.23 0.131,-0.194 0.131,-0.148C0.131,-0.118 0.139,-0.094 0.156,-0.076C0.175,-0.055 0.203,-0.044 0.24,-0.044C0.277,-0.044 0.312,-0.053 0.346,-0.07C0.382,-0.089 0.407,-0.112 0.421,-0.14C0.428,-0.153 0.431,-0.166 0.431,-0.178L0.431,-0.301Z" style="fill:white;fill-rule:nonzero;"/>
                </g>
                <g transform="matrix(164.733,0,0,164.733,499.521,454)">
                    <path d="M0.024,-0L0.024,-0.036C0.061,-0.038 0.086,-0.044 0.098,-0.055C0.11,-0.066 0.116,-0.087 0.116,-0.116L0.116,-0.433C0.116,-0.462 0.109,-0.481 0.097,-0.49C0.087,-0.497 0.064,-0.501 0.027,-0.504L0.027,-0.54C0.085,-0.54 0.138,-0.547 0.186,-0.56L0.186,-0.465C0.207,-0.495 0.235,-0.519 0.269,-0.537C0.299,-0.552 0.33,-0.56 0.36,-0.56C0.423,-0.56 0.472,-0.538 0.508,-0.493C0.538,-0.456 0.553,-0.405 0.553,-0.34L0.553,-0.116C0.553,-0.085 0.559,-0.064 0.571,-0.054C0.583,-0.044 0.607,-0.038 0.646,-0.036L0.646,-0L0.398,-0L0.398,-0.036C0.432,-0.038 0.455,-0.044 0.467,-0.055C0.478,-0.065 0.483,-0.085 0.483,-0.116L0.483,-0.343C0.483,-0.391 0.471,-0.43 0.447,-0.459C0.424,-0.488 0.393,-0.502 0.354,-0.502C0.293,-0.502 0.237,-0.465 0.186,-0.39L0.186,-0.116C0.186,-0.086 0.191,-0.065 0.203,-0.055C0.214,-0.045 0.236,-0.038 0.27,-0.036L0.27,-0L0.024,-0Z" style="fill:white;fill-rule:nonzero;"/>
                </g>
                <g transform="matrix(164.733,0,0,164.733,608.271,454)">
                    <path d="M0.431,-0.351L0.431,-0.366C0.431,-0.414 0.421,-0.449 0.4,-0.471C0.389,-0.482 0.374,-0.492 0.354,-0.5C0.331,-0.509 0.307,-0.513 0.283,-0.513C0.243,-0.513 0.21,-0.507 0.185,-0.494C0.172,-0.488 0.163,-0.481 0.159,-0.473C0.178,-0.466 0.187,-0.45 0.187,-0.425C0.187,-0.413 0.184,-0.402 0.177,-0.393C0.167,-0.379 0.153,-0.372 0.134,-0.372C0.119,-0.372 0.106,-0.378 0.096,-0.389C0.085,-0.402 0.08,-0.417 0.08,-0.437C0.08,-0.468 0.099,-0.496 0.136,-0.52C0.177,-0.547 0.227,-0.56 0.286,-0.56C0.343,-0.56 0.391,-0.548 0.43,-0.522C0.477,-0.492 0.5,-0.433 0.5,-0.345L0.5,-0.12C0.5,-0.074 0.51,-0.051 0.531,-0.051C0.55,-0.051 0.567,-0.068 0.583,-0.101L0.612,-0.064C0.589,-0.009 0.557,0.018 0.517,0.018C0.465,0.018 0.436,-0.017 0.432,-0.087C0.391,-0.017 0.321,0.018 0.221,0.018C0.164,0.018 0.12,-0.002 0.087,-0.043C0.065,-0.071 0.054,-0.105 0.054,-0.144C0.054,-0.206 0.085,-0.255 0.147,-0.29C0.208,-0.325 0.288,-0.344 0.389,-0.349L0.431,-0.351ZM0.431,-0.301L0.394,-0.299C0.309,-0.294 0.243,-0.279 0.197,-0.254C0.153,-0.23 0.131,-0.194 0.131,-0.148C0.131,-0.118 0.139,-0.094 0.156,-0.076C0.175,-0.055 0.203,-0.044 0.24,-0.044C0.277,-0.044 0.312,-0.053 0.346,-0.07C0.382,-0.089 0.407,-0.112 0.421,-0.14C0.428,-0.153 0.431,-0.166 0.431,-0.178L0.431,-0.301Z" style="fill:white;fill-rule:nonzero;"/>
                </g>
                <g transform="matrix(164.733,0,0,164.733,710.425,454)">
                    <path d="M0.015,-0L0.015,-0.036C0.056,-0.037 0.083,-0.044 0.093,-0.056C0.103,-0.066 0.108,-0.087 0.108,-0.116L0.108,-0.433C0.108,-0.461 0.102,-0.479 0.09,-0.488C0.079,-0.496 0.055,-0.502 0.018,-0.504L0.018,-0.54C0.068,-0.54 0.12,-0.547 0.174,-0.56L0.174,-0.447C0.194,-0.479 0.224,-0.507 0.264,-0.531C0.296,-0.55 0.33,-0.56 0.367,-0.56C0.394,-0.56 0.415,-0.553 0.432,-0.54C0.451,-0.525 0.46,-0.504 0.46,-0.477C0.46,-0.461 0.455,-0.447 0.446,-0.437C0.435,-0.426 0.422,-0.42 0.404,-0.42C0.394,-0.42 0.384,-0.423 0.376,-0.428C0.359,-0.439 0.351,-0.455 0.351,-0.475C0.351,-0.486 0.354,-0.496 0.361,-0.506C0.331,-0.505 0.301,-0.494 0.272,-0.473C0.234,-0.445 0.202,-0.41 0.178,-0.367L0.178,-0.116C0.178,-0.085 0.183,-0.064 0.195,-0.054C0.207,-0.043 0.235,-0.037 0.277,-0.036L0.277,-0L0.015,-0Z" style="fill:white;fill-rule:nonzero;"/>
                </g>
                <g transform="matrix(164.733,0,0,164.733,786.196,454)">
                    <path d="M0.007,-0.492L0.007,-0.539C0.06,-0.549 0.098,-0.571 0.123,-0.605C0.14,-0.631 0.152,-0.665 0.157,-0.709L0.193,-0.709L0.193,-0.54L0.375,-0.54L0.375,-0.492L0.193,-0.492L0.193,-0.157C0.193,-0.118 0.198,-0.09 0.208,-0.073C0.219,-0.054 0.239,-0.044 0.268,-0.044C0.311,-0.044 0.347,-0.065 0.375,-0.106L0.397,-0.068C0.359,-0.011 0.31,0.017 0.248,0.017C0.199,0.017 0.163,-0.003 0.142,-0.044C0.129,-0.07 0.122,-0.106 0.122,-0.15L0.122,-0.492L0.007,-0.492Z" style="fill:white;fill-rule:nonzero;"/>
                </g>
            </g>
            <g transform="matrix(1.78267,0,0,1.74083,-80.2289,-143.708)">
                <g transform="matrix(0.557481,0,0,0.557481,35.702,45.7042)">
                    <path d="M767.971,524.5C767.971,524.5 748.328,546.847 747,556C745.005,569.75 752.417,586.602 749,596C746.333,603.333 732.287,615.078 728,619C716.422,629.592 699.5,658.167 702,678C704.5,697.833 711.781,739.089 743,738C760.324,737.396 773.395,713.616 773,694C772.503,669.329 751.343,653.647 752,637C752.5,624.333 764.333,607.171 765,597C765.857,583.922 754.505,571.059 755,558.976C755.495,546.893 767.971,524.5 767.971,524.5Z" style="fill:rgb(151,203,241);"/>
                </g>
                <g transform="matrix(0.557481,0,0,0.557481,35.702,45.7042)">
                    <path d="M691,663C691,663 722.541,666 737.207,666C751.138,666 779,663 779,663L760,691L739,676L719,692L691,663Z"/>
                </g>
                <path d="M468.231,367.933C475.899,372.92 466.676,380.106 463.244,376.459C461.474,374.583 458.981,373.001 455.763,371.714C451.956,370.212 448.015,369.461 443.939,369.461C437.397,369.461 434.823,361.74 444.422,361.74C453.913,361.74 461.85,363.804 468.231,367.933Z" style="fill:white;fill-rule:nonzero;"/>
            </g>
        </g>
    </g>
</svg>
